<svg xmlns="http://www.w3.org/2000/svg" xmlns:xlink="http://www.w3.org/1999/xlink" contentStyleType="text/css" data-diagram-type="CLASS" height="509px" preserveAspectRatio="none" style="width:1452px;height:509px;background:#FFFFFF;" version="1.1" viewBox="0 0 1452 509" width="1452px" zoomAndPan="magnify"><defs/><g><!--cluster Test_types--><g id="cluster_Test_types"><path d="M8.5,6 L94.2383,6 A3.75,3.75 0 0 1 96.7383,8.5 L103.7383,28.2969 L1442.5,28.2969 A2.5,2.5 0 0 1 1445,30.7969 L1445,499.5 A2.5,2.5 0 0 1 1442.5,502 L8.5,502 A2.5,2.5 0 0 1 6,499.5 L6,8.5 A2.5,2.5 0 0 1 8.5,6 " fill="transparent" style="stroke:#000000;stroke-width:1.5;"/><line style="stroke:#000000;stroke-width:1.5;" x1="6" x2="103.7383" y1="28.2969" y2="28.2969"/><text fill="#000000" font-family="sans-serif" font-size="14" font-weight="bold" lengthAdjust="spacing" textLength="84.7383" x="10" y="20.9951">Test_types</text></g><!--class FeatureB--><g id="elem_FeatureB"><rect codeLine="3" fill="#FFFFE0" height="113.1875" id="FeatureB" rx="2.5" ry="2.5" style="stroke:#181818;stroke-width:0.5;" width="254.0195" x="43" y="41"/><ellipse cx="133.9692" cy="57" fill="#ADD1B2" rx="11" ry="11" style="stroke:#181818;stroke-width:1;"/><path d="M136.938,62.6406 Q136.3599,62.9375 135.7192,63.0781 Q135.0786,63.2344 134.3755,63.2344 Q131.8755,63.2344 130.5474,61.5938 Q129.2349,59.9375 129.2349,56.8125 Q129.2349,53.6875 130.5474,52.0313 Q131.8755,50.375 134.3755,50.375 Q135.0786,50.375 135.7192,50.5313 Q136.3755,50.6875 136.938,50.9844 L136.938,53.7031 Q136.313,53.125 135.7192,52.8594 Q135.1255,52.5781 134.5005,52.5781 Q133.1567,52.5781 132.4692,53.6563 Q131.7817,54.7188 131.7817,56.8125 Q131.7817,58.9063 132.4692,59.9844 Q133.1567,61.0469 134.5005,61.0469 Q135.1255,61.0469 135.7192,60.7813 Q136.313,60.5 136.938,59.9219 L136.938,62.6406 Z " fill="#000000"/><text fill="#000000" font-family="sans-serif" font-size="14" lengthAdjust="spacing" textLength="63.5811" x="154.4692" y="61.8467">FeatureB</text><line style="stroke:#181818;stroke-width:0.5;" x1="44" x2="296.0195" y1="73" y2="73"/><rect fill="transparent" height="6" style="stroke:#C82930;stroke-width:1;" width="6" x="51" y="83.6484"/><text fill="#000000" font-family="sans-serif" font-size="14" lengthAdjust="spacing" textLength="228.0195" x="63" y="89.9951">internalClassB1: InternalClassB1</text><rect fill="transparent" height="6" style="stroke:#C82930;stroke-width:1;" width="6" x="51" y="99.9453"/><text fill="#000000" font-family="sans-serif" font-size="14" lengthAdjust="spacing" textLength="228.0195" x="63" y="106.292">internalClassB2: InternalClassB2</text><ellipse cx="54" cy="119.2422" fill="transparent" rx="3" ry="3" style="stroke:#038048;stroke-width:1;"/><text fill="#000000" font-family="sans-serif" font-size="14" lengthAdjust="spacing" textLength="203.6563" x="63" y="122.5889">publicClassB1: PublicClassB1</text><ellipse cx="54" cy="135.5391" fill="transparent" rx="3" ry="3" style="stroke:#038048;stroke-width:1;"/><text fill="#000000" font-family="sans-serif" font-size="14" lengthAdjust="spacing" textLength="203.6563" x="63" y="138.8857">publicClassB2: PublicClassB2</text><line style="stroke:#181818;stroke-width:0.5;" x1="44" x2="296.0195" y1="146.1875" y2="146.1875"/></g><!--class FeatureA--><g id="elem_FeatureA"><rect codeLine="9" fill="#FFFFE0" height="113.1875" id="FeatureA" rx="2.5" ry="2.5" style="stroke:#181818;stroke-width:0.5;" width="253.9648" x="636" y="41"/><ellipse cx="726.9556" cy="57" fill="#ADD1B2" rx="11" ry="11" style="stroke:#181818;stroke-width:1;"/><path d="M729.9243,62.6406 Q729.3462,62.9375 728.7056,63.0781 Q728.0649,63.2344 727.3618,63.2344 Q724.8618,63.2344 723.5337,61.5938 Q722.2212,59.9375 722.2212,56.8125 Q722.2212,53.6875 723.5337,52.0313 Q724.8618,50.375 727.3618,50.375 Q728.0649,50.375 728.7056,50.5313 Q729.3618,50.6875 729.9243,50.9844 L729.9243,53.7031 Q729.2993,53.125 728.7056,52.8594 Q728.1118,52.5781 727.4868,52.5781 Q726.1431,52.5781 725.4556,53.6563 Q724.7681,54.7188 724.7681,56.8125 Q724.7681,58.9063 725.4556,59.9844 Q726.1431,61.0469 727.4868,61.0469 Q728.1118,61.0469 728.7056,60.7813 Q729.2993,60.5 729.9243,59.9219 L729.9243,62.6406 Z " fill="#000000"/><text fill="#000000" font-family="sans-serif" font-size="14" lengthAdjust="spacing" textLength="63.5537" x="747.4556" y="61.8467">FeatureA</text><line style="stroke:#181818;stroke-width:0.5;" x1="637" x2="888.9648" y1="73" y2="73"/><rect fill="transparent" height="6" style="stroke:#C82930;stroke-width:1;" width="6" x="644" y="83.6484"/><text fill="#000000" font-family="sans-serif" font-size="14" lengthAdjust="spacing" textLength="227.9648" x="656" y="89.9951">internalClassA1: InternalClassA1</text><rect fill="transparent" height="6" style="stroke:#C82930;stroke-width:1;" width="6" x="644" y="99.9453"/><text fill="#000000" font-family="sans-serif" font-size="14" lengthAdjust="spacing" textLength="227.9648" x="656" y="106.292">internalClassA2: InternalClassA2</text><ellipse cx="647" cy="119.2422" fill="transparent" rx="3" ry="3" style="stroke:#038048;stroke-width:1;"/><text fill="#000000" font-family="sans-serif" font-size="14" lengthAdjust="spacing" textLength="203.6016" x="656" y="122.5889">publicClassA1: PublicClassA1</text><ellipse cx="647" cy="135.5391" fill="transparent" rx="3" ry="3" style="stroke:#038048;stroke-width:1;"/><text fill="#000000" font-family="sans-serif" font-size="14" lengthAdjust="spacing" textLength="203.6016" x="656" y="138.8857">publicClassA2: PublicClassA2</text><line style="stroke:#181818;stroke-width:0.5;" x1="637" x2="888.9648" y1="146.1875" y2="146.1875"/></g><!--class InternalClassA1--><g id="elem_InternalClassA1"><rect codeLine="16" fill="#F1F1F1" height="80.5938" id="InternalClassA1" rx="2.5" ry="2.5" style="stroke:#181818;stroke-width:0.5;" width="141.5186" x="923" y="215"/><ellipse cx="938" cy="231" fill="#ADD1B2" rx="11" ry="11" style="stroke:#181818;stroke-width:1;"/><path d="M940.9688,236.6406 Q940.3906,236.9375 939.75,237.0781 Q939.1094,237.2344 938.4063,237.2344 Q935.9063,237.2344 934.5781,235.5938 Q933.2656,233.9375 933.2656,230.8125 Q933.2656,227.6875 934.5781,226.0313 Q935.9063,224.375 938.4063,224.375 Q939.1094,224.375 939.75,224.5313 Q940.4063,224.6875 940.9688,224.9844 L940.9688,227.7031 Q940.3438,227.125 939.75,226.8594 Q939.1563,226.5781 938.5313,226.5781 Q937.1875,226.5781 936.5,227.6563 Q935.8125,228.7188 935.8125,230.8125 Q935.8125,232.9063 936.5,233.9844 Q937.1875,235.0469 938.5313,235.0469 Q939.1563,235.0469 939.75,234.7813 Q940.3438,234.5 940.9688,233.9219 L940.9688,236.6406 Z " fill="#000000"/><text fill="#000000" font-family="sans-serif" font-size="14" lengthAdjust="spacing" textLength="109.5186" x="952" y="235.8467">InternalClassA1</text><line style="stroke:#181818;stroke-width:0.5;" x1="924" x2="1063.5186" y1="247" y2="247"/><line style="stroke:#181818;stroke-width:0.5;" x1="924" x2="1063.5186" y1="255" y2="255"/><rect fill="#F24D5C" height="6" style="stroke:#C82930;stroke-width:1;" width="6" x="931" y="265.6484"/><text fill="#000000" font-family="sans-serif" font-size="14" lengthAdjust="spacing" textLength="112.9297" x="943" y="271.9951">privateMethod()</text><ellipse cx="934" cy="284.9453" fill="#84BE84" rx="3" ry="3" style="stroke:#038048;stroke-width:1;"/><text fill="#000000" font-family="sans-serif" font-size="14" lengthAdjust="spacing" textLength="105.5537" x="943" y="288.292">publicMethod()</text></g><!--class InternalClassA2--><g id="elem_InternalClassA2"><rect codeLine="20" fill="#F1F1F1" height="80.5938" id="InternalClassA2" rx="2.5" ry="2.5" style="stroke:#181818;stroke-width:0.5;" width="141.5186" x="1100" y="215"/><ellipse cx="1115" cy="231" fill="#ADD1B2" rx="11" ry="11" style="stroke:#181818;stroke-width:1;"/><path d="M1117.9688,236.6406 Q1117.3906,236.9375 1116.75,237.0781 Q1116.1094,237.2344 1115.4063,237.2344 Q1112.9063,237.2344 1111.5781,235.5938 Q1110.2656,233.9375 1110.2656,230.8125 Q1110.2656,227.6875 1111.5781,226.0313 Q1112.9063,224.375 1115.4063,224.375 Q1116.1094,224.375 1116.75,224.5313 Q1117.4063,224.6875 1117.9688,224.9844 L1117.9688,227.7031 Q1117.3438,227.125 1116.75,226.8594 Q1116.1563,226.5781 1115.5313,226.5781 Q1114.1875,226.5781 1113.5,227.6563 Q1112.8125,228.7188 1112.8125,230.8125 Q1112.8125,232.9063 1113.5,233.9844 Q1114.1875,235.0469 1115.5313,235.0469 Q1116.1563,235.0469 1116.75,234.7813 Q1117.3438,234.5 1117.9688,233.9219 L1117.9688,236.6406 Z " fill="#000000"/><text fill="#000000" font-family="sans-serif" font-size="14" lengthAdjust="spacing" textLength="109.5186" x="1129" y="235.8467">InternalClassA2</text><line style="stroke:#181818;stroke-width:0.5;" x1="1101" x2="1240.5186" y1="247" y2="247"/><line style="stroke:#181818;stroke-width:0.5;" x1="1101" x2="1240.5186" y1="255" y2="255"/><rect fill="#F24D5C" height="6" style="stroke:#C82930;stroke-width:1;" width="6" x="1108" y="265.6484"/><text fill="#000000" font-family="sans-serif" font-size="14" lengthAdjust="spacing" textLength="112.9297" x="1120" y="271.9951">privateMethod()</text><ellipse cx="1111" cy="284.9453" fill="#84BE84" rx="3" ry="3" style="stroke:#038048;stroke-width:1;"/><text fill="#000000" font-family="sans-serif" font-size="14" lengthAdjust="spacing" textLength="105.5537" x="1120" y="288.292">publicMethod()</text></g><!--class ComponentA1--><g id="elem_ComponentA1"><rect codeLine="24" fill="#F1F1F1" height="80.5938" id="ComponentA1" rx="2.5" ry="2.5" style="stroke:#181818;stroke-width:0.5;" width="138.9297" x="510.5" y="215"/><ellipse cx="528.7247" cy="231" fill="#ADD1B2" rx="11" ry="11" style="stroke:#181818;stroke-width:1;"/><path d="M531.6935,236.6406 Q531.1153,236.9375 530.4747,237.0781 Q529.8341,237.2344 529.131,237.2344 Q526.631,237.2344 525.3028,235.5938 Q523.9903,233.9375 523.9903,230.8125 Q523.9903,227.6875 525.3028,226.0313 Q526.631,224.375 529.131,224.375 Q529.8341,224.375 530.4747,224.5313 Q531.131,224.6875 531.6935,224.9844 L531.6935,227.7031 Q531.0685,227.125 530.4747,226.8594 Q529.881,226.5781 529.256,226.5781 Q527.9122,226.5781 527.2247,227.6563 Q526.5372,228.7188 526.5372,230.8125 Q526.5372,232.9063 527.2247,233.9844 Q527.9122,235.0469 529.256,235.0469 Q529.881,235.0469 530.4747,234.7813 Q531.0685,234.5 531.6935,233.9219 L531.6935,236.6406 Z " fill="#000000"/><text fill="#000000" font-family="sans-serif" font-size="14" lengthAdjust="spacing" textLength="99.7637" x="543.4413" y="235.8467">ComponentA1</text><line style="stroke:#181818;stroke-width:0.5;" x1="511.5" x2="648.4297" y1="247" y2="247"/><line style="stroke:#181818;stroke-width:0.5;" x1="511.5" x2="648.4297" y1="255" y2="255"/><rect fill="#F24D5C" height="6" style="stroke:#C82930;stroke-width:1;" width="6" x="518.5" y="265.6484"/><text fill="#000000" font-family="sans-serif" font-size="14" lengthAdjust="spacing" textLength="112.9297" x="530.5" y="271.9951">privateMethod()</text><ellipse cx="521.5" cy="284.9453" fill="#84BE84" rx="3" ry="3" style="stroke:#038048;stroke-width:1;"/><text fill="#000000" font-family="sans-serif" font-size="14" lengthAdjust="spacing" textLength="105.5537" x="530.5" y="288.292">publicMethod()</text></g><!--class ComponentA2--><g id="elem_ComponentA2"><rect codeLine="28" fill="#F1F1F1" height="80.5938" id="ComponentA2" rx="2.5" ry="2.5" style="stroke:#181818;stroke-width:0.5;" width="138.9297" x="693.5" y="215"/><ellipse cx="711.7247" cy="231" fill="#ADD1B2" rx="11" ry="11" style="stroke:#181818;stroke-width:1;"/><path d="M714.6935,236.6406 Q714.1153,236.9375 713.4747,237.0781 Q712.8341,237.2344 712.131,237.2344 Q709.631,237.2344 708.3028,235.5938 Q706.9903,233.9375 706.9903,230.8125 Q706.9903,227.6875 708.3028,226.0313 Q709.631,224.375 712.131,224.375 Q712.8341,224.375 713.4747,224.5313 Q714.131,224.6875 714.6935,224.9844 L714.6935,227.7031 Q714.0685,227.125 713.4747,226.8594 Q712.881,226.5781 712.256,226.5781 Q710.9122,226.5781 710.2247,227.6563 Q709.5372,228.7188 709.5372,230.8125 Q709.5372,232.9063 710.2247,233.9844 Q710.9122,235.0469 712.256,235.0469 Q712.881,235.0469 713.4747,234.7813 Q714.0685,234.5 714.6935,233.9219 L714.6935,236.6406 Z " fill="#000000"/><text fill="#000000" font-family="sans-serif" font-size="14" lengthAdjust="spacing" textLength="99.7637" x="726.4413" y="235.8467">ComponentA2</text><line style="stroke:#181818;stroke-width:0.5;" x1="694.5" x2="831.4297" y1="247" y2="247"/><line style="stroke:#181818;stroke-width:0.5;" x1="694.5" x2="831.4297" y1="255" y2="255"/><rect fill="#F24D5C" height="6" style="stroke:#C82930;stroke-width:1;" width="6" x="701.5" y="265.6484"/><text fill="#000000" font-family="sans-serif" font-size="14" lengthAdjust="spacing" textLength="112.9297" x="713.5" y="271.9951">privateMethod()</text><ellipse cx="704.5" cy="284.9453" fill="#84BE84" rx="3" ry="3" style="stroke:#038048;stroke-width:1;"/><text fill="#000000" font-family="sans-serif" font-size="14" lengthAdjust="spacing" textLength="105.5537" x="713.5" y="288.292">publicMethod()</text></g><!--class ComponentB1--><g id="elem_ComponentB1"><rect codeLine="32" fill="#F1F1F1" height="80.5938" id="ComponentB1" rx="2.5" ry="2.5" style="stroke:#181818;stroke-width:0.5;" width="138.9297" x="183.5" y="215"/><ellipse cx="201.7124" cy="231" fill="#ADD1B2" rx="11" ry="11" style="stroke:#181818;stroke-width:1;"/><path d="M204.6812,236.6406 Q204.103,236.9375 203.4624,237.0781 Q202.8218,237.2344 202.1187,237.2344 Q199.6187,237.2344 198.2905,235.5938 Q196.978,233.9375 196.978,230.8125 Q196.978,227.6875 198.2905,226.0313 Q199.6187,224.375 202.1187,224.375 Q202.8218,224.375 203.4624,224.5313 Q204.1187,224.6875 204.6812,224.9844 L204.6812,227.7031 Q204.0562,227.125 203.4624,226.8594 Q202.8687,226.5781 202.2437,226.5781 Q200.8999,226.5781 200.2124,227.6563 Q199.5249,228.7188 199.5249,230.8125 Q199.5249,232.9063 200.2124,233.9844 Q200.8999,235.0469 202.2437,235.0469 Q202.8687,235.0469 203.4624,234.7813 Q204.0562,234.5 204.6812,233.9219 L204.6812,236.6406 Z " fill="#000000"/><text fill="#000000" font-family="sans-serif" font-size="14" lengthAdjust="spacing" textLength="99.791" x="216.4263" y="235.8467">ComponentB1</text><line style="stroke:#181818;stroke-width:0.5;" x1="184.5" x2="321.4297" y1="247" y2="247"/><line style="stroke:#181818;stroke-width:0.5;" x1="184.5" x2="321.4297" y1="255" y2="255"/><rect fill="#F24D5C" height="6" style="stroke:#C82930;stroke-width:1;" width="6" x="191.5" y="265.6484"/><text fill="#000000" font-family="sans-serif" font-size="14" lengthAdjust="spacing" textLength="112.9297" x="203.5" y="271.9951">privateMethod()</text><ellipse cx="194.5" cy="284.9453" fill="#84BE84" rx="3" ry="3" style="stroke:#038048;stroke-width:1;"/><text fill="#000000" font-family="sans-serif" font-size="14" lengthAdjust="spacing" textLength="105.5537" x="203.5" y="288.292">publicMethod()</text></g><!--class UnitTestA1--><g id="elem_UnitTestA1"><rect codeLine="36" fill="#D3D3D3" height="113.1875" id="UnitTestA1" rx="2.5" ry="2.5" style="stroke:#181818;stroke-width:0.5;" width="228.5146" x="935.5" y="373"/><ellipse cx="1007.0415" cy="389" fill="#ADD1B2" rx="11" ry="11" style="stroke:#181818;stroke-width:1;"/><path d="M1010.0103,394.6406 Q1009.4321,394.9375 1008.7915,395.0781 Q1008.1509,395.2344 1007.4478,395.2344 Q1004.9478,395.2344 1003.6196,393.5938 Q1002.3071,391.9375 1002.3071,388.8125 Q1002.3071,385.6875 1003.6196,384.0313 Q1004.9478,382.375 1007.4478,382.375 Q1008.1509,382.375 1008.7915,382.5313 Q1009.4478,382.6875 1010.0103,382.9844 L1010.0103,385.7031 Q1009.3853,385.125 1008.7915,384.8594 Q1008.1978,384.5781 1007.5728,384.5781 Q1006.229,384.5781 1005.5415,385.6563 Q1004.854,386.7188 1004.854,388.8125 Q1004.854,390.9063 1005.5415,391.9844 Q1006.229,393.0469 1007.5728,393.0469 Q1008.1978,393.0469 1008.7915,392.7813 Q1009.3853,392.5 1010.0103,391.9219 L1010.0103,394.6406 Z " fill="#000000"/><text fill="#000000" font-family="sans-serif" font-size="14" lengthAdjust="spacing" textLength="76.9316" x="1027.5415" y="393.8467">UnitTestA1</text><line style="stroke:#181818;stroke-width:0.5;" x1="936.5" x2="1163.0146" y1="405" y2="405"/><text fill="#000000" font-family="sans-serif" font-size="14" lengthAdjust="spacing" textLength="104.4941" x="941.5" y="421.9951">type: whitebox</text><text fill="#000000" font-family="sans-serif" font-size="14" lengthAdjust="spacing" textLength="180.0723" x="941.5" y="438.292">responsibility: developers</text><line style="stroke:#181818;stroke-width:0.5;" x1="936.5" x2="1163.0146" y1="445.5938" y2="445.5938"/><ellipse cx="946.5" cy="459.2422" fill="#84BE84" rx="3" ry="3" style="stroke:#038048;stroke-width:1;"/><text fill="#000000" font-family="sans-serif" font-size="14" lengthAdjust="spacing" textLength="131.9951" x="955.5" y="462.5889">testPublicMethod()</text><rect fill="#F24D5C" height="6" style="stroke:#C82930;stroke-width:1;" width="6" x="943.5" y="472.5391"/><text fill="#000000" font-family="sans-serif" font-size="14" lengthAdjust="spacing" textLength="202.5146" x="955.5" y="478.8857">testPrivateMethodIfNeeded()</text></g><!--class UnitTestA2--><g id="elem_UnitTestA2"><rect codeLine="42" fill="#D3D3D3" height="113.1875" id="UnitTestA2" rx="2.5" ry="2.5" style="stroke:#181818;stroke-width:0.5;" width="228.5146" x="1199.5" y="373"/><ellipse cx="1271.0415" cy="389" fill="#ADD1B2" rx="11" ry="11" style="stroke:#181818;stroke-width:1;"/><path d="M1274.0103,394.6406 Q1273.4321,394.9375 1272.7915,395.0781 Q1272.1509,395.2344 1271.4478,395.2344 Q1268.9478,395.2344 1267.6196,393.5938 Q1266.3071,391.9375 1266.3071,388.8125 Q1266.3071,385.6875 1267.6196,384.0313 Q1268.9478,382.375 1271.4478,382.375 Q1272.1509,382.375 1272.7915,382.5313 Q1273.4478,382.6875 1274.0103,382.9844 L1274.0103,385.7031 Q1273.3853,385.125 1272.7915,384.8594 Q1272.1978,384.5781 1271.5728,384.5781 Q1270.229,384.5781 1269.5415,385.6563 Q1268.854,386.7188 1268.854,388.8125 Q1268.854,390.9063 1269.5415,391.9844 Q1270.229,393.0469 1271.5728,393.0469 Q1272.1978,393.0469 1272.7915,392.7813 Q1273.3853,392.5 1274.0103,391.9219 L1274.0103,394.6406 Z " fill="#000000"/><text fill="#000000" font-family="sans-serif" font-size="14" lengthAdjust="spacing" textLength="76.9316" x="1291.5415" y="393.8467">UnitTestA2</text><line style="stroke:#181818;stroke-width:0.5;" x1="1200.5" x2="1427.0146" y1="405" y2="405"/><text fill="#000000" font-family="sans-serif" font-size="14" lengthAdjust="spacing" textLength="104.4941" x="1205.5" y="421.9951">type: whitebox</text><text fill="#000000" font-family="sans-serif" font-size="14" lengthAdjust="spacing" textLength="180.0723" x="1205.5" y="438.292">responsibility: developers</text><line style="stroke:#181818;stroke-width:0.5;" x1="1200.5" x2="1427.0146" y1="445.5938" y2="445.5938"/><ellipse cx="1210.5" cy="459.2422" fill="#84BE84" rx="3" ry="3" style="stroke:#038048;stroke-width:1;"/><text fill="#000000" font-family="sans-serif" font-size="14" lengthAdjust="spacing" textLength="131.9951" x="1219.5" y="462.5889">testPublicMethod()</text><rect fill="#F24D5C" height="6" style="stroke:#C82930;stroke-width:1;" width="6" x="1207.5" y="472.5391"/><text fill="#000000" font-family="sans-serif" font-size="14" lengthAdjust="spacing" textLength="202.5146" x="1219.5" y="478.8857">testPrivateMethodIfNeeded()</text></g><!--class FeatureIntegrationTest--><g id="elem_FeatureIntegrationTest"><rect codeLine="48" fill="#D3D3D3" height="96.8906" id="FeatureIntegrationTest" rx="2.5" ry="2.5" style="stroke:#181818;stroke-width:0.5;" width="260.3223" x="22" y="381"/><ellipse cx="67.377" cy="397" fill="#ADD1B2" rx="11" ry="11" style="stroke:#181818;stroke-width:1;"/><path d="M70.3457,402.6406 Q69.7676,402.9375 69.127,403.0781 Q68.4863,403.2344 67.7832,403.2344 Q65.2832,403.2344 63.9551,401.5938 Q62.6426,399.9375 62.6426,396.8125 Q62.6426,393.6875 63.9551,392.0313 Q65.2832,390.375 67.7832,390.375 Q68.4863,390.375 69.127,390.5313 Q69.7832,390.6875 70.3457,390.9844 L70.3457,393.7031 Q69.7207,393.125 69.127,392.8594 Q68.5332,392.5781 67.9082,392.5781 Q66.5645,392.5781 65.877,393.6563 Q65.1895,394.7188 65.1895,396.8125 Q65.1895,398.9063 65.877,399.9844 Q66.5645,401.0469 67.9082,401.0469 Q68.5332,401.0469 69.127,400.7813 Q69.7207,400.5 70.3457,399.9219 L70.3457,402.6406 Z " fill="#000000"/><text fill="#000000" font-family="sans-serif" font-size="14" lengthAdjust="spacing" textLength="161.0684" x="87.877" y="401.8467">FeatureIntegrationTest</text><line style="stroke:#181818;stroke-width:0.5;" x1="23" x2="281.3223" y1="413" y2="413"/><text fill="#000000" font-family="sans-serif" font-size="14" lengthAdjust="spacing" textLength="103.3389" x="28" y="429.9951">type: blackbox</text><text fill="#000000" font-family="sans-serif" font-size="14" lengthAdjust="spacing" textLength="151.2178" x="28" y="446.292">responsibility: testers</text><line style="stroke:#181818;stroke-width:0.5;" x1="23" x2="281.3223" y1="453.5938" y2="453.5938"/><ellipse cx="33" cy="467.2422" fill="#84BE84" rx="3" ry="3" style="stroke:#038048;stroke-width:1;"/><text fill="#000000" font-family="sans-serif" font-size="14" lengthAdjust="spacing" textLength="234.3223" x="42" y="470.5889">testIntegrationByPublicMethods()</text></g><!--class ComponentIntegrationTestX--><g id="elem_ComponentIntegrationTestX"><rect codeLine="53" fill="#D3D3D3" height="96.8906" id="ComponentIntegrationTestX" rx="2.5" ry="2.5" style="stroke:#181818;stroke-width:0.5;" width="273.625" x="626" y="381"/><ellipse cx="660.6484" cy="397" fill="#ADD1B2" rx="11" ry="11" style="stroke:#181818;stroke-width:1;"/><path d="M663.6171,402.6406 Q663.039,402.9375 662.3984,403.0781 Q661.7578,403.2344 661.0546,403.2344 Q658.5546,403.2344 657.2265,401.5938 Q655.914,399.9375 655.914,396.8125 Q655.914,393.6875 657.2265,392.0313 Q658.5546,390.375 661.0546,390.375 Q661.7578,390.375 662.3984,390.5313 Q663.0546,390.6875 663.6171,390.9844 L663.6171,393.7031 Q662.9921,393.125 662.3984,392.8594 Q661.8046,392.5781 661.1796,392.5781 Q659.8359,392.5781 659.1484,393.6563 Q658.4609,394.7188 658.4609,396.8125 Q658.4609,398.9063 659.1484,399.9844 Q659.8359,401.0469 661.1796,401.0469 Q661.8046,401.0469 662.3984,400.7813 Q662.9921,400.5 663.6171,399.9219 L663.6171,402.6406 Z " fill="#000000"/><text fill="#000000" font-family="sans-serif" font-size="14" lengthAdjust="spacing" textLength="197.9619" x="679.0147" y="401.8467">ComponentIntegrationTestX</text><line style="stroke:#181818;stroke-width:0.5;" x1="627" x2="898.625" y1="413" y2="413"/><text fill="#000000" font-family="sans-serif" font-size="14" lengthAdjust="spacing" textLength="103.3389" x="632" y="429.9951">type: blackbox</text><text fill="#000000" font-family="sans-serif" font-size="14" lengthAdjust="spacing" textLength="151.2178" x="632" y="446.292">responsibility: testers</text><line style="stroke:#181818;stroke-width:0.5;" x1="627" x2="898.625" y1="453.5938" y2="453.5938"/><ellipse cx="637" cy="467.2422" fill="#84BE84" rx="3" ry="3" style="stroke:#038048;stroke-width:1;"/><text fill="#000000" font-family="sans-serif" font-size="14" lengthAdjust="spacing" textLength="247.625" x="646" y="470.5889">testFunctionalityByPublicMethods()</text></g><!--class ComponentIntegrationTestY--><g id="elem_ComponentIntegrationTestY"><rect codeLine="58" fill="#D3D3D3" height="96.8906" id="ComponentIntegrationTestY" rx="2.5" ry="2.5" style="stroke:#181818;stroke-width:0.5;" width="273.625" x="317" y="381"/><ellipse cx="352.116" cy="397" fill="#ADD1B2" rx="11" ry="11" style="stroke:#181818;stroke-width:1;"/><path d="M355.0847,402.6406 Q354.5066,402.9375 353.866,403.0781 Q353.2253,403.2344 352.5222,403.2344 Q350.0222,403.2344 348.6941,401.5938 Q347.3816,399.9375 347.3816,396.8125 Q347.3816,393.6875 348.6941,392.0313 Q350.0222,390.375 352.5222,390.375 Q353.2253,390.375 353.866,390.5313 Q354.5222,390.6875 355.0847,390.9844 L355.0847,393.7031 Q354.4597,393.125 353.866,392.8594 Q353.2722,392.5781 352.6472,392.5781 Q351.3035,392.5781 350.616,393.6563 Q349.9285,394.7188 349.9285,396.8125 Q349.9285,398.9063 350.616,399.9844 Q351.3035,401.0469 352.6472,401.0469 Q353.2722,401.0469 353.866,400.7813 Q354.4597,400.5 355.0847,399.9219 L355.0847,402.6406 Z " fill="#000000"/><text fill="#000000" font-family="sans-serif" font-size="14" lengthAdjust="spacing" textLength="196.9229" x="370.5862" y="401.8467">ComponentIntegrationTestY</text><line style="stroke:#181818;stroke-width:0.5;" x1="318" x2="589.625" y1="413" y2="413"/><text fill="#000000" font-family="sans-serif" font-size="14" lengthAdjust="spacing" textLength="103.3389" x="323" y="429.9951">type: blackbox</text><text fill="#000000" font-family="sans-serif" font-size="14" lengthAdjust="spacing" textLength="151.2178" x="323" y="446.292">responsibility: testers</text><line style="stroke:#181818;stroke-width:0.5;" x1="318" x2="589.625" y1="453.5938" y2="453.5938"/><ellipse cx="328" cy="467.2422" fill="#84BE84" rx="3" ry="3" style="stroke:#038048;stroke-width:1;"/><text fill="#000000" font-family="sans-serif" font-size="14" lengthAdjust="spacing" textLength="247.625" x="337" y="470.5889">testFunctionalityByPublicMethods()</text></g><!--link FeatureA to InternalClassA1--><g id="link_FeatureA_InternalClassA1"><path codeLine="64" d="M845.42,154.16 C875.09,174.2 902.9683,193.0211 930.2183,211.4311 " fill="transparent" id="FeatureA-to-InternalClassA1" style="stroke:#181818;stroke-width:1;"/><polygon fill="#181818" points="935.19,214.79,929.9717,206.4372,931.0469,211.9909,925.4932,213.0662,935.19,214.79" style="stroke:#181818;stroke-width:1;"/></g><!--link FeatureA to InternalClassA2--><g id="link_FeatureA_InternalClassA2"><path codeLine="65" d="M890.34,142.46 C949.33,163.44 1020.14,189.49 1083,215 C1088.43,217.2 1088.5036,217.18 1094.1136,219.58 " fill="transparent" id="FeatureA-to-InternalClassA2" style="stroke:#181818;stroke-width:1;"/><polygon fill="#181818" points="1099.63,221.94,1092.9287,214.7225,1095.033,219.9734,1089.7821,222.0777,1099.63,221.94" style="stroke:#181818;stroke-width:1;"/></g><!--link InternalClassA1 to InternalClassA2--><!--link FeatureA to ComponentA1--><g id="link_FeatureA_ComponentA1"><path codeLine="67" d="M697.71,154.16 C674.2,174.2 652.7455,192.4869 631.1555,210.8969 " fill="transparent" id="FeatureA-to-ComponentA1" style="stroke:#181818;stroke-width:1;"/><polygon fill="#181818" points="626.59,214.79,636.0337,211.9941,630.3946,211.5458,630.8429,205.9067,626.59,214.79" style="stroke:#181818;stroke-width:1;"/></g><!--link FeatureA to ComponentA2--><g id="link_FeatureA_ComponentA2"><path codeLine="68" d="M763,154.38 C763,174.31 763,190.35 763,208.66 " fill="transparent" id="FeatureA-to-ComponentA2" style="stroke:#181818;stroke-width:1;"/><polygon fill="#181818" points="763,214.66,767,205.66,763,209.66,759,205.66,763,214.66" style="stroke:#181818;stroke-width:1;"/></g><!--link FeatureB to ComponentB1--><g id="link_FeatureB_ComponentB1"><path codeLine="69" d="M199.73,154.38 C210.34,174.31 219.2422,191.0528 228.9822,209.3628 " fill="transparent" id="FeatureB-to-ComponentB1" style="stroke:#181818;stroke-width:1;"/><polygon fill="#181818" points="231.8,214.66,231.1047,204.8357,229.4518,210.2457,224.0418,208.5928,231.8,214.66" style="stroke:#181818;stroke-width:1;"/></g><!--reverse link InternalClassA1 to UnitTestA1--><g id="link_InternalClassA1_UnitTestA1"><path codeLine="70" d="M1008.8474,302.0953 C1016.2474,324.8253 1023.77,347.94 1031.89,372.86 " fill="transparent" id="InternalClassA1-backto-UnitTestA1" style="stroke:#181818;stroke-width:1;"/><polygon fill="#181818" points="1006.99,296.39,1005.9726,306.1862,1008.5378,301.1444,1013.5796,303.7096,1006.99,296.39" style="stroke:#181818;stroke-width:1;"/><text fill="#000000" font-family="sans-serif" font-size="13" lengthAdjust="spacing" textLength="29.7832" x="1023" y="339.0669">uses</text></g><!--reverse link InternalClassA2 to UnitTestA2--><g id="link_InternalClassA2_UnitTestA2"><path codeLine="71" d="M1208.0049,301.0045 C1226.8949,323.7345 1247.03,347.94 1267.74,372.86 " fill="transparent" id="InternalClassA2-backto-UnitTestA2" style="stroke:#181818;stroke-width:1;"/><polygon fill="#181818" points="1204.17,296.39,1206.846,305.8683,1207.3658,300.2354,1212.9987,300.7551,1204.17,296.39" style="stroke:#181818;stroke-width:1;"/><text fill="#000000" font-family="sans-serif" font-size="13" lengthAdjust="spacing" textLength="29.7832" x="1243" y="339.0669">uses</text></g><!--reverse link ComponentA1 to ComponentIntegrationTestX--><g id="link_ComponentA1_ComponentIntegrationTestX"><path codeLine="72" d="M626.8118,300.4994 C653.6318,325.7094 684.06,354.31 712.33,380.87 " fill="transparent" id="ComponentA1-backto-ComponentIntegrationTestX" style="stroke:#181818;stroke-width:1;"/><polygon fill="#181818" points="622.44,296.39,626.2582,305.4686,626.0832,299.8145,631.7373,299.6395,622.44,296.39" style="stroke:#181818;stroke-width:1;"/><text fill="#000000" font-family="sans-serif" font-size="13" lengthAdjust="spacing" textLength="29.7832" x="672" y="339.0669">uses</text></g><!--reverse link ComponentA2 to ComponentIntegrationTestX--><g id="link_ComponentA2_ComponentIntegrationTestX"><path codeLine="73" d="M763,302.39 C763,327.6 763,354.31 763,380.87 " fill="transparent" id="ComponentA2-backto-ComponentIntegrationTestX" style="stroke:#181818;stroke-width:1;"/><polygon fill="#181818" points="763,296.39,759,305.39,763,301.39,767,305.39,763,296.39" style="stroke:#181818;stroke-width:1;"/><text fill="#000000" font-family="sans-serif" font-size="13" lengthAdjust="spacing" textLength="29.7832" x="764" y="339.0669">uses</text></g><!--reverse link ComponentA1 to ComponentIntegrationTestY--><g id="link_ComponentA1_ComponentIntegrationTestY"><path codeLine="74" d="M547.234,301.23 C528.764,326.44 508.35,354.31 488.89,380.87 " fill="transparent" id="ComponentA1-backto-ComponentIntegrationTestY" style="stroke:#181818;stroke-width:1;"/><polygon fill="#181818" points="550.78,296.39,542.2343,301.286,547.825,300.4233,548.6877,306.014,550.78,296.39" style="stroke:#181818;stroke-width:1;"/><text fill="#000000" font-family="sans-serif" font-size="13" lengthAdjust="spacing" textLength="29.7832" x="529" y="339.0669">uses</text></g><!--reverse link ComponentA1 to FeatureIntegrationTest--><g id="link_ComponentA1_FeatureIntegrationTest"><path codeLine="75" d="M504.9316,297.9576 C473.9316,314.1476 441.93,329.51 407,343 C360.93,360.79 346.94,357.65 300,373 C292.31,375.52 284.42,378.19 276.49,380.95 " fill="transparent" id="ComponentA1-backto-FeatureIntegrationTest" style="stroke:#181818;stroke-width:1;"/><polygon fill="#181818" points="510.25,295.18,500.4207,295.8008,505.818,297.4946,504.1241,302.8919,510.25,295.18" style="stroke:#181818;stroke-width:1;"/><text fill="#000000" font-family="sans-serif" font-size="13" lengthAdjust="spacing" textLength="29.7832" x="447" y="339.0669">uses</text></g><!--reverse link ComponentB1 to FeatureIntegrationTest--><g id="link_ComponentB1_FeatureIntegrationTest"><path codeLine="76" d="M226.5324,301.5642 C211.7324,326.7742 195.57,354.31 179.97,380.87 " fill="transparent" id="ComponentB1-backto-FeatureIntegrationTest" style="stroke:#181818;stroke-width:1;"/><polygon fill="#181818" points="229.57,296.39,221.5641,302.1263,227.0386,300.7019,228.463,306.1765,229.57,296.39" style="stroke:#181818;stroke-width:1;"/><text fill="#000000" font-family="sans-serif" font-size="13" lengthAdjust="spacing" textLength="29.7832" x="212" y="339.0669">uses</text></g><!--reverse link FeatureA to FeatureIntegrationTest--><g id="link_FeatureA_FeatureIntegrationTest"><path codeLine="77" d="M630.1389,132.8536 C566.6889,152.1236 495.98,178.27 433,215 C385.65,242.61 383.13,262.17 340,296 C302.46,325.45 259,356.28 223.33,380.78 " fill="transparent" id="FeatureA-backto-FeatureIntegrationTest" style="stroke:#181818;stroke-width:1;"/><polygon fill="#181818" points="635.88,131.11,626.106,129.898,631.0958,132.563,628.4308,137.5528,635.88,131.11" style="stroke:#181818;stroke-width:1;"/><text fill="#000000" font-family="sans-serif" font-size="13" lengthAdjust="spacing" textLength="58.9697" x="434" y="260.0669">validates</text></g><!--reverse link FeatureB to FeatureIntegrationTest--><g id="link_FeatureB_FeatureIntegrationTest"><path codeLine="78" d="M129.055,159.3805 C118.475,177.9105 111.39,193.99 106,215 C91.49,271.56 111.08,337.33 129,380.76 " fill="transparent" id="FeatureB-backto-FeatureIntegrationTest" style="stroke:#181818;stroke-width:1;"/><polygon fill="#181818" points="132.03,154.17,124.0938,160.0024,129.5508,158.5121,131.0411,163.9691,132.03,154.17" style="stroke:#181818;stroke-width:1;"/><text fill="#000000" font-family="sans-serif" font-size="13" lengthAdjust="spacing" textLength="58.9697" x="107" y="260.0669">validates</text></g><!--SRC=[nPJVIyCm4CVV-rS4V56a3-QnY90E9WELFIWuH2HjppLOqvAacqNslvliHzUaxTocw6FlllUz3ytT5JH-erD0zo3LYweAaEZJYpCg9He2LQM049tSi6cg9f1b-Lnd4K8-Obo1u3GR66bu4Q2H7UXIOLU5ZUeS5MMKiRXs6ZS_smfiAx2ti7d9zxp4vILTlCJb9MrUOlEIDY-nUOdXNGCx21lKGh0PLN0BAisJqxEcOnrRT5hWOom6-NkHS-3gE89j-S-wXqTrV-1CcT7LxAjNlnPGhOpCC0TedZ85KVvX8WAaxYLPn3AcgW0bC8CiBq38LG-bZSPsdoNGCjw46htU0IJG2OB_6MIz1MOmfe8gbdE3rGCLPNhzUw1CCukeOHbMJJpPzPuEmEDl40nB7Xj3QlA7Cqp-XC6hxv3lNxNEp8uazjo3u3-bB4c0FuiEiUNKMEA-H5qHsWbzOzs-bxxVtAm0bHAavzuQIuKtgkOvCOh-WMWLu4CBTdUOz1Nqh8Yh3lTHrpzxftIcfoNHMoktRx2dVl45]--></g></svg>