<svg xmlns="http://www.w3.org/2000/svg" xmlns:xlink="http://www.w3.org/1999/xlink" contentStyleType="text/css" data-diagram-type="CLASS" height="322px" preserveAspectRatio="none" style="width:967px;height:322px;background:#FFFFFF;" version="1.1" viewBox="0 0 967 322" width="967px" zoomAndPan="magnify"><defs/><g><!--entity Feature_User--><g id="elem_Feature_User"><ellipse cx="482.6685" cy="14" fill="#F1F1F1" rx="8" ry="8" style="stroke:#181818;stroke-width:0.5;"/><path d="M482.6685,22 L482.6685,49 M469.6685,30 L495.6685,30 M482.6685,49 L469.6685,64 M482.6685,49 L495.6685,64 " fill="transparent" style="stroke:#181818;stroke-width:0.5;"/><text fill="#000000" font-family="sans-serif" font-size="14" lengthAdjust="spacing" textLength="90.3369" x="437.5" y="78.4951">Feature User</text></g><!--class logic_arc_int__example_feature__archdes_logical_interface_2--><g id="elem_logic_arc_int__example_feature__archdes_logical_interface_2"><rect fill="#F1F1F1" height="40" id="logic_arc_int__example_feature__archdes_logical_interface_2" rx="2.5" ry="2.5" style="stroke:#181818;stroke-width:0.5;" width="459.0137" x="7" y="158.5"/><ellipse cx="22" cy="174.5" fill="#ADD1B2" rx="11" ry="11" style="stroke:#181818;stroke-width:1;"/><path d="M24.9688,180.1406 Q24.3906,180.4375 23.75,180.5781 Q23.1094,180.7344 22.4063,180.7344 Q19.9063,180.7344 18.5781,179.0938 Q17.2656,177.4375 17.2656,174.3125 Q17.2656,171.1875 18.5781,169.5313 Q19.9063,167.875 22.4063,167.875 Q23.1094,167.875 23.75,168.0313 Q24.4063,168.1875 24.9688,168.4844 L24.9688,171.2031 Q24.3438,170.625 23.75,170.3594 Q23.1563,170.0781 22.5313,170.0781 Q21.1875,170.0781 20.5,171.1563 Q19.8125,172.2188 19.8125,174.3125 Q19.8125,176.4063 20.5,177.4844 Q21.1875,178.5469 22.5313,178.5469 Q23.1563,178.5469 23.75,178.2813 Q24.3438,178 24.9688,177.4219 L24.9688,180.1406 Z " fill="#000000"/><text fill="#000000" font-family="sans-serif" font-size="14" lengthAdjust="spacing" textLength="427.0137" x="36" y="179.3467">logic_arc_int__example_feature__archdes_logical_interface_2</text><line style="stroke:#181818;stroke-width:0.5;" x1="8" x2="465.0137" y1="190.5" y2="190.5"/></g><!--class comp_arc_sta__example_feature__component_getstrt--><g id="elem_comp_arc_sta__example_feature__component_getstrt"><rect fill="#F1F1F1" height="40" id="comp_arc_sta__example_feature__component_getstrt" rx="2.5" ry="2.5" style="stroke:#181818;stroke-width:0.5;" width="407.7578" x="526.5" y="275.5"/><ellipse cx="541.5" cy="291.5" fill="#ADD1B2" rx="11" ry="11" style="stroke:#181818;stroke-width:1;"/><path d="M544.4688,297.1406 Q543.8906,297.4375 543.25,297.5781 Q542.6094,297.7344 541.9063,297.7344 Q539.4063,297.7344 538.0781,296.0938 Q536.7656,294.4375 536.7656,291.3125 Q536.7656,288.1875 538.0781,286.5313 Q539.4063,284.875 541.9063,284.875 Q542.6094,284.875 543.25,285.0313 Q543.9063,285.1875 544.4688,285.4844 L544.4688,288.2031 Q543.8438,287.625 543.25,287.3594 Q542.6563,287.0781 542.0313,287.0781 Q540.6875,287.0781 540,288.1563 Q539.3125,289.2188 539.3125,291.3125 Q539.3125,293.4063 540,294.4844 Q540.6875,295.5469 542.0313,295.5469 Q542.6563,295.5469 543.25,295.2813 Q543.8438,295 544.4688,294.4219 L544.4688,297.1406 Z " fill="#000000"/><text fill="#000000" font-family="sans-serif" font-size="14" lengthAdjust="spacing" textLength="375.7578" x="555.5" y="296.3467">comp_arc_sta__example_feature__component_getstrt</text><line style="stroke:#181818;stroke-width:0.5;" x1="527.5" x2="933.2578" y1="307.5" y2="307.5"/></g><!--class logic_arc_int__example_feature__archdes_logical_interface_1--><g id="elem_logic_arc_int__example_feature__archdes_logical_interface_1"><rect fill="#F1F1F1" height="40" id="logic_arc_int__example_feature__archdes_logical_interface_1" rx="2.5" ry="2.5" style="stroke:#181818;stroke-width:0.5;" width="459.0137" x="501" y="158.5"/><ellipse cx="516" cy="174.5" fill="#ADD1B2" rx="11" ry="11" style="stroke:#181818;stroke-width:1;"/><path d="M518.9688,180.1406 Q518.3906,180.4375 517.75,180.5781 Q517.1094,180.7344 516.4063,180.7344 Q513.9063,180.7344 512.5781,179.0938 Q511.2656,177.4375 511.2656,174.3125 Q511.2656,171.1875 512.5781,169.5313 Q513.9063,167.875 516.4063,167.875 Q517.1094,167.875 517.75,168.0313 Q518.4063,168.1875 518.9688,168.4844 L518.9688,171.2031 Q518.3438,170.625 517.75,170.3594 Q517.1563,170.0781 516.5313,170.0781 Q515.1875,170.0781 514.5,171.1563 Q513.8125,172.2188 513.8125,174.3125 Q513.8125,176.4063 514.5,177.4844 Q515.1875,178.5469 516.5313,178.5469 Q517.1563,178.5469 517.75,178.2813 Q518.3438,178 518.9688,177.4219 L518.9688,180.1406 Z " fill="#000000"/><text fill="#000000" font-family="sans-serif" font-size="14" lengthAdjust="spacing" textLength="427.0137" x="530" y="179.3467">logic_arc_int__example_feature__archdes_logical_interface_1</text><line style="stroke:#181818;stroke-width:0.5;" x1="502" x2="959.0137" y1="190.5" y2="190.5"/></g><!--class comp__component_example_1--><g id="elem_comp__component_example_1"><rect fill="#F1F1F1" height="40" id="comp__component_example_1" rx="2.5" ry="2.5" style="stroke:#181818;stroke-width:0.5;" width="247.4004" x="113" y="275.5"/><ellipse cx="128" cy="291.5" fill="#ADD1B2" rx="11" ry="11" style="stroke:#181818;stroke-width:1;"/><path d="M130.9688,297.1406 Q130.3906,297.4375 129.75,297.5781 Q129.1094,297.7344 128.4063,297.7344 Q125.9063,297.7344 124.5781,296.0938 Q123.2656,294.4375 123.2656,291.3125 Q123.2656,288.1875 124.5781,286.5313 Q125.9063,284.875 128.4063,284.875 Q129.1094,284.875 129.75,285.0313 Q130.4063,285.1875 130.9688,285.4844 L130.9688,288.2031 Q130.3438,287.625 129.75,287.3594 Q129.1563,287.0781 128.5313,287.0781 Q127.1875,287.0781 126.5,288.1563 Q125.8125,289.2188 125.8125,291.3125 Q125.8125,293.4063 126.5,294.4844 Q127.1875,295.5469 128.5313,295.5469 Q129.1563,295.5469 129.75,295.2813 Q130.3438,295 130.9688,294.4219 L130.9688,297.1406 Z " fill="#000000"/><text fill="#000000" font-family="sans-serif" font-size="14" lengthAdjust="spacing" textLength="215.4004" x="142" y="296.3467">comp__component_example_1</text><line style="stroke:#181818;stroke-width:0.5;" x1="114" x2="359.4004" y1="307.5" y2="307.5"/></g><!--link Feature_User to logic_arc_int__example_feature__archdes_logical_interface_2--><g id="link_Feature_User_logic_arc_int__example_feature__archdes_logical_interface_2"><path codeLine="14" d="M437.38,68.89 C389.66,94.69 320.6679,131.9962 277.0579,155.5762 " fill="transparent" id="Feature_User-to-logic_arc_int__example_feature__archdes_logical_interface_2" style="stroke:#181818;stroke-width:1;"/><polygon fill="#181818" points="271.78,158.43,281.5993,157.6679,276.1782,156.0519,277.7943,150.6308,271.78,158.43" style="stroke:#181818;stroke-width:1;"/><text fill="#000000" font-family="sans-serif" font-size="13" lengthAdjust="spacing" textLength="23.0103" x="353.5" y="124.5669">use</text></g><!--reverse link logic_arc_int__example_feature__archdes_logical_interface_1 to comp_arc_sta__example_feature__component_getstrt--><g id="link_logic_arc_int__example_feature__archdes_logical_interface_1_comp_arc_sta__example_feature__component_getstrt"><path codeLine="16" d="M730.5,204.75 C730.5,225.98 730.5,253.94 730.5,275.19 " fill="transparent" id="logic_arc_int__example_feature__archdes_logical_interface_1-backto-comp_arc_sta__example_feature__component_getstrt" style="stroke:#181818;stroke-width:1;"/><polygon fill="#181818" points="730.5,198.75,726.5,207.75,730.5,203.75,734.5,207.75,730.5,198.75" style="stroke:#181818;stroke-width:1;"/><text fill="#000000" font-family="sans-serif" font-size="13" lengthAdjust="spacing" textLength="76.9082" x="731.5" y="241.5669">implements</text></g><!--link Feature_User to logic_arc_int__example_feature__archdes_logical_interface_1--><g id="link_Feature_User_logic_arc_int__example_feature__archdes_logical_interface_1"><path codeLine="17" d="M527.7,68.74 C575.76,94.51 645.5024,131.9142 689.5624,155.5442 " fill="transparent" id="Feature_User-to-logic_arc_int__example_feature__archdes_logical_interface_1" style="stroke:#181818;stroke-width:1;"/><polygon fill="#181818" points="694.85,158.38,688.8092,150.6013,690.4437,156.0168,685.0281,157.6514,694.85,158.38" style="stroke:#181818;stroke-width:1;"/><text fill="#000000" font-family="sans-serif" font-size="13" lengthAdjust="spacing" textLength="23.0103" x="637.5" y="124.5669">use</text></g><!--reverse link logic_arc_int__example_feature__archdes_logical_interface_2 to comp__component_example_1--><g id="link_logic_arc_int__example_feature__archdes_logical_interface_2_comp__component_example_1"><path codeLine="18" d="M236.5,204.75 C236.5,225.98 236.5,253.94 236.5,275.19 " fill="transparent" id="logic_arc_int__example_feature__archdes_logical_interface_2-backto-comp__component_example_1" style="stroke:#181818;stroke-width:1;"/><polygon fill="#181818" points="236.5,198.75,232.5,207.75,236.5,203.75,240.5,207.75,236.5,198.75" style="stroke:#181818;stroke-width:1;"/><text fill="#000000" font-family="sans-serif" font-size="13" lengthAdjust="spacing" textLength="76.9082" x="237.5" y="241.5669">implements</text></g><!--SRC=[hO-nRiCm34HtVGMHtMdjCGYo5EZKCPq5MMPief8eY3GQe-Y_rtPTe06wfUEHnySx5mA_sqXNIhrHpg0CBQjoX8uAUYLEPg0EGHGBiauPlpN6h1CurKBjg2ZcA3e5F9cz4mejV9WNIlZ4WGiKx5Pr7iY_9HI1PlzeFitnORinpklispsZqx4Wl0gM7JY1RM2N0PWRLNNL2GBtvAqhtb9IQ_7gOWveBvjnsGmTYbrzBYmkB1VdqJO760N16CynhmHHzmTXMNF2cTwZYXQ5QhphSNq0MhnnPih_TggtJckbNyb_4FMzsPlRx5y0]--></g></svg>